<svg width="20" height="21" viewBox="0 0 20 21" fill="none" xmlns="http://www.w3.org/2000/svg">
<path fill-rule="evenodd" clip-rule="evenodd" d="M19.069 7.20395L10.622 0.486948C10.4453 0.346105 10.226 0.269409 10 0.269409C9.77402 0.269409 9.55473 0.346105 9.378 0.486948L0.930003 7.20395C0.694554 7.39123 0.504387 7.62921 0.373667 7.90017C0.242946 8.17114 0.175039 8.4681 0.175003 8.76895V18.1869C0.175003 18.8235 0.42786 19.4339 0.877947 19.884C1.32803 20.3341 1.93848 20.5869 2.575 20.5869H8V15.8349C8 15.5697 8.10536 15.3154 8.2929 15.1278C8.48043 14.9403 8.73479 14.8349 9 14.8349H11C11.2652 14.8349 11.5196 14.9403 11.7071 15.1278C11.8946 15.3154 12 15.5697 12 15.8349V20.5869H17.424C18.0605 20.5869 18.671 20.3341 19.1211 19.884C19.5711 19.4339 19.824 18.8235 19.824 18.1869V8.76995C19.824 8.4691 19.7561 8.17214 19.6253 7.90117C19.4946 7.63021 19.3045 7.39223 19.069 7.20495" fill="#191F28"/>
</svg>
