<svg width="24" height="24" viewBox="0 0 24 24" fill="none" xmlns="http://www.w3.org/2000/svg">
<path fill-rule="evenodd" clip-rule="evenodd" d="M23 10.5C23 15.7467 18.0751 20 12 20V22C12 22.5523 11.5512 23.0018 11.0079 22.9025C7.5948 22.2785 2.10685 18.6614 1.14589 12.0511C1.04991 11.5463 1 11.0282 1 10.5C1 10.4285 1.00092 10.3571 1.00274 10.286C1.00092 10.1912 1 10.0959 1 10H1.01497C1.31603 4.98572 6.11907 1 12 1C18.0751 1 23 5.25329 23 10.5ZM8 11.5C8.55228 11.5 9 11.0523 9 10.5C9 9.94771 8.55228 9.5 8 9.5C7.44772 9.5 7 9.94771 7 10.5C7 11.0523 7.44772 11.5 8 11.5ZM13 10.5C13 11.0523 12.5523 11.5 12 11.5C11.4477 11.5 11 11.0523 11 10.5C11 9.94771 11.4477 9.5 12 9.5C12.5523 9.5 13 9.94771 13 10.5ZM16 11.5C16.5523 11.5 17 11.0523 17 10.5C17 9.94771 16.5523 9.5 16 9.5C15.4477 9.5 15 9.94771 15 10.5C15 11.0523 15.4477 11.5 16 11.5Z" fill="#B0B8C1"/>
</svg>
